# xmcd
#
# Track frame offsets:
#	150
#	14005
#	24827
#	40396
#	49398
#	64994
#	75386
#	84931
#	99255
#	113193
#
# Disc length: 1758 seconds
# Revision: 0
# Processed by: cddbd v1.5.2PL0 Copyright (c) Steve Scherf et al.
# Submitted via: dBpowerAMP V12.0
#
DISCID=7406dc0a
DTITLE=Various Artist - Are You Ready?
DYEAR=2012
DGENRE=Country
TTITLE0=Stoney Creek Bluegrass Band with Dee Stottlemyer - Are You Ready?
TTITLE1=Stoney Creek Bluegrass Band - Oh Ye Must Be Born Again
TTITLE2=Stoney Creek Bluegrass Band - Gone Away
TTITLE3=Stoney Creek Bluegrass Band - When the Sun of My Life Goes Down
TTITLE4=Stoney Creek Bluegrass Band - Rock and Roll
TTITLE5=Stoney Creek Bluegrass Band - Wait A Little Longer, Please Jesus
TTITLE6=Stoney Creek Bluegrass Band - A Beautiful Life
TTITLE7=Stoney Creek Bluegrass Band - Just Any Day Now
TTITLE8=Stoney Creek Bluegrass Band - Where the Soul of Man Never Dies
TTITLE9=Stoney Creek Bluegrass Band - Will It Be You?
EXTD=
EXTT0=
EXTT1=
EXTT2=
EXTT3=
EXTT4=
EXTT5=
EXTT6=
EXTT7=
EXTT8=
EXTT9=
PLAYORDER=
